<svg xmlns="http://www.w3.org/2000/svg" width="512" height="512" viewBox="0 0 512 512">
  <defs>
    <linearGradient id="bg" x1="0%" y1="0%" x2="100%" y2="100%">
      <stop offset="0%" style="stop-color:#667eea"/>
      <stop offset="100%" style="stop-color:#764ba2"/>
    </linearGradient>
  </defs>
  <rect width="512" height="512" rx="96" fill="url(#bg)"/>
  <!-- Clock face -->
  <circle cx="256" cy="256" r="160" fill="none" stroke="#fff" stroke-width="16"/>
  <circle cx="256" cy="256" r="8" fill="#fff"/>
  <!-- Hour hand -->
  <line x1="256" y1="256" x2="256" y2="156" stroke="#fff" stroke-width="14" stroke-linecap="round"/>
  <!-- Minute hand -->
  <line x1="256" y1="256" x2="326" y2="256" stroke="#fff" stroke-width="10" stroke-linecap="round"/>
  <!-- Tick marks -->
  <line x1="256" y1="106" x2="256" y2="126" stroke="#fff" stroke-width="8" stroke-linecap="round"/>
  <line x1="256" y1="386" x2="256" y2="406" stroke="#fff" stroke-width="8" stroke-linecap="round"/>
  <line x1="106" y1="256" x2="126" y2="256" stroke="#fff" stroke-width="8" stroke-linecap="round"/>
  <line x1="386" y1="256" x2="406" y2="256" stroke="#fff" stroke-width="8" stroke-linecap="round"/>
  <!-- Bell icon -->
  <path d="M370 200 Q370 320 350 360 Q340 380 310 380 L200 380 Q170 380 160 360 Q140 320 140 200" fill="none" stroke="#fff" stroke-width="10" stroke-linejoin="round" opacity="0.3"/>
  <circle cx="256" cy="420" r="12" fill="#fff" opacity="0.3"/>
</svg>
